<svg width="254" height="88" viewBox="0 0 254 88" fill="none" xmlns="http://www.w3.org/2000/svg">
<path d="M29.8437 55.57L18.5037 21.334C18.1797 20.362 17.3697 19.984 16.3977 19.984C15.5877 19.984 14.7237 20.2 13.8597 20.578L2.03366 54.976C1.87166 55.678 1.60166 56.434 1.60166 56.974C1.60166 58 2.24966 58.54 3.43766 58.54C4.19366 58.54 4.67966 58.432 5.21966 58.216C5.00366 57.946 4.94966 57.568 4.94966 57.19C4.94966 56.758 5.11166 56.11 5.27366 55.678L8.40566 45.796H23.3637L27.0357 57.19C27.2517 58.054 28.1157 58.54 29.1417 58.54C30.0057 58.54 30.5457 58.216 30.9777 57.73C30.5457 57.19 30.1137 56.326 29.8437 55.57ZM9.05366 43.69L15.8037 22.414L22.6617 43.69H9.05366ZM40.2159 22.144C40.2159 20.956 39.5139 20.254 38.3799 20.254C37.4619 20.254 36.8679 20.686 36.5439 21.01C36.9219 22.252 37.0839 24.196 37.0839 26.302L37.1379 56.11C37.1379 57.298 37.8939 58 38.9739 58H54.5799C55.7139 58 55.6059 55.516 54.7419 55.03C50.3679 55.462 45.2379 55.894 40.3239 55.948L40.2159 22.144ZM65.5811 22.144C65.5811 20.956 64.8791 20.254 63.7451 20.254C62.8271 20.254 62.2331 20.686 61.9091 21.01C62.2871 22.252 62.4491 24.196 62.4491 26.302L62.5031 56.11C62.5031 57.298 63.2591 58 64.3391 58H79.9451C81.0791 58 80.9711 55.516 80.1071 55.03C75.7331 55.462 70.6031 55.894 65.6891 55.948L65.5811 22.144ZM110.44 20.362H84.1964C82.1984 20.362 83.0624 25.654 84.9524 26.518C87.3284 25.384 90.5684 23.926 93.7544 23.224V55.138C93.7544 57.406 95.4824 58.756 97.8044 58.756C99.8024 58.756 101.26 57.784 101.908 57.19C100.99 54.922 100.882 52.438 100.882 50.386L100.828 23.224C104.014 23.926 107.308 25.384 109.63 26.518C111.574 25.654 112.384 20.362 110.44 20.362ZM144.878 52.87C144.446 53.248 143.96 53.356 143.582 53.356C142.502 53.302 141.638 52.222 140.558 49.684L138.29 44.446C137.048 42.286 135.698 40.612 133.052 39.856C138.29 38.506 141.584 34.78 141.584 29.434C141.584 22.36 135.968 19.606 125.762 19.606C120.956 19.606 117.878 20.2 115.772 21.226C116.636 23.494 116.798 26.41 116.798 28.03V55.138C116.798 57.406 118.526 58.756 120.848 58.756C122.846 58.756 124.304 57.784 124.898 57.19C123.98 55.084 123.872 52.438 123.872 50.764V41.314L125.924 41.368C129.704 41.368 130.676 43.798 131.756 46.498L133.43 50.926C135.374 55.786 136.616 58.756 141.044 58.756C142.664 58.756 145.31 57.568 145.31 54.814C145.31 54.274 145.202 53.626 144.878 52.87ZM123.872 38.776V22.144C124.52 22.036 125.33 22.036 126.302 22.036C131.81 22.036 133.808 25.384 133.808 29.92C133.808 34.834 131.324 38.668 126.248 38.83C125.438 38.884 124.628 38.83 123.872 38.776ZM177.709 53.788L168.097 21.874C167.611 20.038 165.991 19.552 164.263 19.552C162.319 19.552 160.321 19.876 158.323 20.524L147.685 52.114C147.253 53.572 146.983 54.868 146.983 55.786C146.983 57.838 148.171 58.756 150.925 58.756C152.707 58.756 153.787 58.378 154.813 58C154.435 57.622 154.219 57.082 154.219 56.272C154.219 55.516 154.381 54.706 154.597 53.896L156.379 46.93H168.583L171.013 56.002C171.391 57.838 173.119 58.756 175.279 58.756C177.601 58.756 178.789 57.892 179.437 57.136C178.573 56.218 177.979 54.706 177.709 53.788ZM157.351 43.096L162.373 23.764L167.557 43.096H157.351ZM188.295 58.756C190.293 58.756 191.751 57.784 192.345 57.19C191.427 54.922 191.319 52.438 191.319 50.386V23.278C191.319 21.01 189.591 19.66 187.269 19.66C185.271 19.66 183.813 20.632 183.219 21.226C184.083 23.494 184.245 25.978 184.245 28.03V55.138C184.245 57.406 185.973 58.756 188.295 58.756ZM207.507 23.278C207.507 21.01 205.833 19.66 203.511 19.66C201.513 19.66 200.055 20.632 199.461 21.226C200.325 23.494 200.487 25.978 200.487 28.03V54.382C200.487 56.65 202.215 58 204.537 58H220.467C222.789 58 222.681 52.438 220.899 51.25C217.983 52.762 212.313 54.112 207.561 54.22L207.507 23.278ZM237.85 58.81C247.408 58.81 251.836 53.95 251.836 48.172C251.836 41.746 246.49 38.452 241.36 35.644C234.934 32.08 232.99 30.136 232.99 26.68C232.99 23.062 235.96 22.036 238.336 22.036C242.062 22.036 244.006 23.818 244.546 26.032C244.924 27.004 245.032 28.084 244.978 29.164C245.626 29.272 246.382 29.326 246.976 29.218C249.73 29.164 250.594 27.652 250.594 25.924C250.594 21.712 245.842 19.606 239.146 19.606C232.342 19.606 226.402 22.306 226.402 29.164C226.402 35.374 230.614 38.29 237.418 42.178C242.386 44.986 244.978 46.876 244.978 50.602C244.978 54.436 242.224 56.218 238.876 56.218C233.8 56.218 231.37 53.14 230.938 50.062C230.776 49.198 230.776 48.172 230.992 47.308C226.456 46.66 225.052 48.712 225.052 51.142C225.052 55.462 229.102 58.81 237.85 58.81Z" fill="#B4D330"/>
<path d="M29.8437 55.57L18.5037 21.334C18.1797 20.362 17.3697 19.984 16.3977 19.984C15.5877 19.984 14.7237 20.2 13.8597 20.578L2.03366 54.976C1.87166 55.678 1.60166 56.434 1.60166 56.974C1.60166 58 2.24966 58.54 3.43766 58.54C4.19366 58.54 4.67966 58.432 5.21966 58.216C5.00366 57.946 4.94966 57.568 4.94966 57.19C4.94966 56.758 5.11166 56.11 5.27366 55.678L8.40566 45.796H23.3637L27.0357 57.19C27.2517 58.054 28.1157 58.54 29.1417 58.54C30.0057 58.54 30.5457 58.216 30.9777 57.73C30.5457 57.19 30.1137 56.326 29.8437 55.57ZM9.05366 43.69L15.8037 22.414L22.6617 43.69H9.05366ZM40.2159 22.144C40.2159 20.956 39.5139 20.254 38.3799 20.254C37.4619 20.254 36.8679 20.686 36.5439 21.01C36.9219 22.252 37.0839 24.196 37.0839 26.302L37.1379 56.11C37.1379 57.298 37.8939 58 38.9739 58H54.5799C55.7139 58 55.6059 55.516 54.7419 55.03C50.3679 55.462 45.2379 55.894 40.3239 55.948L40.2159 22.144ZM65.5811 22.144C65.5811 20.956 64.8791 20.254 63.7451 20.254C62.8271 20.254 62.2331 20.686 61.9091 21.01C62.2871 22.252 62.4491 24.196 62.4491 26.302L62.5031 56.11C62.5031 57.298 63.2591 58 64.3391 58H79.9451C81.0791 58 80.9711 55.516 80.1071 55.03C75.7331 55.462 70.6031 55.894 65.6891 55.948L65.5811 22.144ZM110.44 20.362H84.1964C82.1984 20.362 83.0624 25.654 84.9524 26.518C87.3284 25.384 90.5684 23.926 93.7544 23.224V55.138C93.7544 57.406 95.4824 58.756 97.8044 58.756C99.8024 58.756 101.26 57.784 101.908 57.19C100.99 54.922 100.882 52.438 100.882 50.386L100.828 23.224C104.014 23.926 107.308 25.384 109.63 26.518C111.574 25.654 112.384 20.362 110.44 20.362ZM144.878 52.87C144.446 53.248 143.96 53.356 143.582 53.356C142.502 53.302 141.638 52.222 140.558 49.684L138.29 44.446C137.048 42.286 135.698 40.612 133.052 39.856C138.29 38.506 141.584 34.78 141.584 29.434C141.584 22.36 135.968 19.606 125.762 19.606C120.956 19.606 117.878 20.2 115.772 21.226C116.636 23.494 116.798 26.41 116.798 28.03V55.138C116.798 57.406 118.526 58.756 120.848 58.756C122.846 58.756 124.304 57.784 124.898 57.19C123.98 55.084 123.872 52.438 123.872 50.764V41.314L125.924 41.368C129.704 41.368 130.676 43.798 131.756 46.498L133.43 50.926C135.374 55.786 136.616 58.756 141.044 58.756C142.664 58.756 145.31 57.568 145.31 54.814C145.31 54.274 145.202 53.626 144.878 52.87ZM123.872 38.776V22.144C124.52 22.036 125.33 22.036 126.302 22.036C131.81 22.036 133.808 25.384 133.808 29.92C133.808 34.834 131.324 38.668 126.248 38.83C125.438 38.884 124.628 38.83 123.872 38.776ZM177.709 53.788L168.097 21.874C167.611 20.038 165.991 19.552 164.263 19.552C162.319 19.552 160.321 19.876 158.323 20.524L147.685 52.114C147.253 53.572 146.983 54.868 146.983 55.786C146.983 57.838 148.171 58.756 150.925 58.756C152.707 58.756 153.787 58.378 154.813 58C154.435 57.622 154.219 57.082 154.219 56.272C154.219 55.516 154.381 54.706 154.597 53.896L156.379 46.93H168.583L171.013 56.002C171.391 57.838 173.119 58.756 175.279 58.756C177.601 58.756 178.789 57.892 179.437 57.136C178.573 56.218 177.979 54.706 177.709 53.788ZM157.351 43.096L162.373 23.764L167.557 43.096H157.351ZM188.295 58.756C190.293 58.756 191.751 57.784 192.345 57.19C191.427 54.922 191.319 52.438 191.319 50.386V23.278C191.319 21.01 189.591 19.66 187.269 19.66C185.271 19.66 183.813 20.632 183.219 21.226C184.083 23.494 184.245 25.978 184.245 28.03V55.138C184.245 57.406 185.973 58.756 188.295 58.756ZM207.507 23.278C207.507 21.01 205.833 19.66 203.511 19.66C201.513 19.66 200.055 20.632 199.461 21.226C200.325 23.494 200.487 25.978 200.487 28.03V54.382C200.487 56.65 202.215 58 204.537 58H220.467C222.789 58 222.681 52.438 220.899 51.25C217.983 52.762 212.313 54.112 207.561 54.22L207.507 23.278ZM237.85 58.81C247.408 58.81 251.836 53.95 251.836 48.172C251.836 41.746 246.49 38.452 241.36 35.644C234.934 32.08 232.99 30.136 232.99 26.68C232.99 23.062 235.96 22.036 238.336 22.036C242.062 22.036 244.006 23.818 244.546 26.032C244.924 27.004 245.032 28.084 244.978 29.164C245.626 29.272 246.382 29.326 246.976 29.218C249.73 29.164 250.594 27.652 250.594 25.924C250.594 21.712 245.842 19.606 239.146 19.606C232.342 19.606 226.402 22.306 226.402 29.164C226.402 35.374 230.614 38.29 237.418 42.178C242.386 44.986 244.978 46.876 244.978 50.602C244.978 54.436 242.224 56.218 238.876 56.218C233.8 56.218 231.37 53.14 230.938 50.062C230.776 49.198 230.776 48.172 230.992 47.308C226.456 46.66 225.052 48.712 225.052 51.142C225.052 55.462 229.102 58.81 237.85 58.81Z" fill="#5C3131" fill-opacity="0.58"/>
</svg>
